<svg width="14" height="17" viewBox="0 0 14 17" fill="none" xmlns="http://www.w3.org/2000/svg">
<path d="M14 12.5C13.1244 12.5 13.0231 11.5 11.6719 11.5C10.3147 11.5 10.2086 12.5 9.33594 12.5C8.47047 12.5 8.353 11.5 7 11.5C5.66119 11.5 5.52444 12.5 4.67188 12.5C3.79225 12.5 3.69681 11.5 2.33594 11.5C0.975094 11.5 0.878031 12.5 0 12.5V10C0 9.17188 0.671875 8.5 1.5 8.5H2V4H4V8.5H6V4H8V8.5H10V4H12V8.5H12.5C13.3281 8.5 14 9.17188 14 10V12.5ZM14 16.5H0V13.5C1.35487 13.5 1.46147 12.5 2.33594 12.5C3.20941 12.5 3.31259 13.5 4.67188 13.5C6.01072 13.5 6.14741 12.5 7 12.5C7.87962 12.5 7.97503 13.5 9.33594 13.5C10.6908 13.5 10.7974 12.5 11.6719 12.5C12.5309 12.5 12.6485 13.5 14 13.5V16.5ZM3 3.5C2.44531 3.5 2 3.05469 2 2.5C2 1.53125 3 1.78125 3 0.5C3.375 0.5 4 1.42188 4 2.25C4 3.07812 3.55469 3.5 3 3.5ZM7 3.5C6.44531 3.5 6 3.05469 6 2.5C6 1.53125 7 1.78125 7 0.5C7.375 0.5 8 1.42188 8 2.25C8 3.07812 7.55469 3.5 7 3.5ZM11 3.5C10.4453 3.5 10 3.05469 10 2.5C10 1.53125 11 1.78125 11 0.5C11.375 0.5 12 1.42188 12 2.25C12 3.07812 11.5547 3.5 11 3.5Z" fill="#DBDBE1"/>
</svg>
