<svg width="22" height="20" viewBox="0 0 22 20" fill="none" xmlns="http://www.w3.org/2000/svg">
<path d="M18.4181 1.92188H15.9981V1.57812C15.9981 1.39579 15.9257 1.22092 15.7968 1.09199C15.6678 0.963058 15.493 0.890625 15.3106 0.890625C15.1283 0.890625 14.9534 0.963058 14.8245 1.09199C14.6956 1.22092 14.6231 1.39579 14.6231 1.57812V1.92188H7.37687V1.57812C7.37687 1.39579 7.30444 1.22092 7.17551 1.09199C7.04658 0.963058 6.87171 0.890625 6.68937 0.890625C6.50704 0.890625 6.33217 0.963058 6.20324 1.09199C6.07431 1.22092 6.00187 1.39579 6.00187 1.57812V1.92188H3.58188C2.8148 1.92369 2.07966 2.22922 1.53725 2.77162C0.994841 3.31403 0.689316 4.04917 0.6875 4.81625V16.875C0.689316 17.6421 0.994841 18.3772 1.53725 18.9196C2.07966 19.462 2.8148 19.7676 3.58188 19.7694H18.4181C19.1852 19.7676 19.9203 19.462 20.4628 18.9196C21.0052 18.3772 21.3107 17.6421 21.3125 16.875V4.81625C21.3107 4.04917 21.0052 3.31403 20.4628 2.77162C19.9203 2.22922 19.1852 1.92369 18.4181 1.92188ZM3.58188 3.29688H6.00187V3.64062C6.00187 3.82296 6.07431 3.99783 6.20324 4.12676C6.33217 4.25569 6.50704 4.32812 6.68937 4.32812C6.87171 4.32812 7.04658 4.25569 7.17551 4.12676C7.30444 3.99783 7.37687 3.82296 7.37687 3.64062V3.29688H14.6231V3.64062C14.6231 3.82296 14.6956 3.99783 14.8245 4.12676C14.9534 4.25569 15.1283 4.32812 15.3106 4.32812C15.493 4.32812 15.6678 4.25569 15.7968 4.12676C15.9257 3.99783 15.9981 3.82296 15.9981 3.64062V3.29688H18.4181C18.8211 3.29688 19.2075 3.45695 19.4925 3.74189C19.7774 4.02683 19.9375 4.41329 19.9375 4.81625V6.44562H2.0625V4.81625C2.0625 4.41329 2.22258 4.02683 2.50751 3.74189C2.79245 3.45695 3.17891 3.29688 3.58188 3.29688ZM18.4181 18.4219H3.58188C3.38001 18.4219 3.18017 18.3817 2.99401 18.3036C2.80786 18.2256 2.63913 18.1112 2.49767 17.9672C2.35622 17.8232 2.24488 17.6524 2.17017 17.4649C2.09545 17.2774 2.05885 17.0768 2.0625 16.875V7.82062H19.9375V16.875C19.9412 17.0768 19.9046 17.2774 19.8298 17.4649C19.7551 17.6524 19.6438 17.8232 19.5023 17.9672C19.3609 18.1112 19.1921 18.2256 19.006 18.3036C18.8198 18.3817 18.62 18.4219 18.4181 18.4219Z" fill="#8C8CA1"/>
</svg>
