<svg width="8" height="17" viewBox="0 0 8 17" fill="none" xmlns="http://www.w3.org/2000/svg">
<path d="M4.00001 0.5C5.10457 0.5 6.00001 1.39544 6.00001 2.5C6.00001 3.60456 5.10457 4.5 4.00001 4.5C2.89545 4.5 2.00001 3.60456 2.00001 2.5C2.00001 1.39544 2.89545 0.5 4.00001 0.5ZM7.72761 11.5681L6.22761 5.56809C6.18704 5.40583 6.0934 5.26178 5.96156 5.15885C5.82973 5.05591 5.66727 5 5.50001 5H5.14501C4.43529 5.32634 3.59532 5.34044 2.85501 5H2.50001C2.33275 5 2.1703 5.05591 2.03846 5.15885C1.90663 5.26178 1.81298 5.40583 1.77242 5.56809L0.272417 11.5681C0.15423 12.0408 0.51198 12.5 1.00001 12.5H2.75001V15.75C2.75001 16.1642 3.08579 16.5 3.50001 16.5H4.50001C4.91423 16.5 5.25001 16.1642 5.25001 15.75V12.5H7.00001C7.48723 12.5 7.84598 12.0415 7.72761 11.5681Z" fill="#DBDBE1"/>
</svg>
